<svg xmlns="http://www.w3.org/2000/svg" xmlns:xlink="http://www.w3.org/1999/xlink" version="1.1" x="0px" y="0px" viewBox="0 0 100 125" enable-background="new 0 0 100 100" xml:space="preserve"><path fill="#000000" d="M75.888,12.066H29.044c-5.332,0-9.67,4.338-9.67,9.67c0,0.562,0.455,1.017,1.018,1.017  c0.562,0,1.017-0.455,1.017-1.017c0-4.209,3.426-7.635,7.635-7.635h46.844c4.209,0,7.635,3.426,7.635,7.635v57.977  c0,4.209-3.426,7.635-7.635,7.635H29.044c-4.209,0-7.635-3.426-7.635-7.635c0-0.562-0.455-1.018-1.017-1.018  c-0.562,0-1.018,0.455-1.018,1.018c0,5.332,4.338,9.67,9.67,9.67h46.844c5.332,0,9.67-4.338,9.67-9.67V21.736  C85.558,16.404,81.22,12.066,75.888,12.066z M13.962,31.029H26.82c0.562,0,1.017-0.455,1.017-1.017c0-0.562-0.455-1.017-1.017-1.017  H13.962c-0.562,0-1.017,0.455-1.017,1.017C12.945,30.574,13.4,31.029,13.962,31.029z M13.962,44.837H26.82  c0.562,0,1.017-0.455,1.017-1.017c0-0.562-0.455-1.018-1.017-1.018H13.962c-0.562,0-1.017,0.455-1.017,1.018  C12.945,44.382,13.4,44.837,13.962,44.837z M13.962,58.647H26.82c0.562,0,1.017-0.455,1.017-1.017c0-0.562-0.455-1.018-1.017-1.018  H13.962c-0.562,0-1.017,0.455-1.017,1.018C12.945,58.192,13.4,58.647,13.962,58.647z M27.838,71.44c0-0.562-0.455-1.018-1.017-1.018  H13.962c-0.562,0-1.017,0.455-1.017,1.018c0,0.562,0.455,1.017,1.017,1.017H26.82C27.383,72.457,27.838,72.002,27.838,71.44z   M35.968,67.286c0.073,0.501,0.503,0.872,1.008,0.872h32.523c0.505,0,0.934-0.372,1.008-0.872c0.05-0.35,1.192-8.651-3.126-13.639  c-2.063-2.383-4.998-3.591-8.722-3.591c-0.269,0-0.497,0.133-0.683,0.315l-0.026-0.027c-0.018,0.018-1.799,1.699-4.71,1.699  c-2.911,0-4.694-1.681-4.708-1.695l-0.026,0.027c-0.187-0.184-0.416-0.319-0.687-0.319c-3.724,0-6.66,1.208-8.722,3.591  C34.776,58.636,35.918,66.937,35.968,67.286z M53.238,54.078c1.198,0,2.224-0.23,3.096-0.534l-3.096,6.414l-3.098-6.415  C51.013,53.848,52.04,54.078,53.238,54.078z M47.185,52.105l5.137,10.638c0.34,0.706,1.496,0.702,1.832,0l5.135-10.638  c2.802,0.125,5.002,1.087,6.548,2.87c2.965,3.42,2.892,9.007,2.739,11.149H37.898c-0.157-2.138-0.236-7.713,2.735-11.145  C42.177,53.194,44.38,52.23,47.185,52.105z M62.746,38.857c0-5.243-4.265-9.507-9.507-9.507s-9.509,4.265-9.509,9.507  c0,5.243,4.267,9.509,9.509,9.509S62.746,44.1,62.746,38.857z M45.764,38.857c0-4.12,3.353-7.472,7.474-7.472  c4.12,0,7.472,3.353,7.472,7.472c0,4.122-3.353,7.474-7.472,7.474C49.116,46.332,45.764,42.979,45.764,38.857z"/></svg>