<svg xmlns:dc="http://purl.org/dc/elements/1.1/" xmlns:cc="http://creativecommons.org/ns#" xmlns:rdf="http://www.w3.org/1999/02/22-rdf-syntax-ns#" xmlns:svg="http://www.w3.org/2000/svg" xmlns="http://www.w3.org/2000/svg" xmlns:sodipodi="http://sodipodi.sourceforge.net/DTD/sodipodi-0.dtd" xmlns:inkscape="http://www.inkscape.org/namespaces/inkscape" version="1.1" x="0px" y="0px" viewBox="0 0 100 125"><g transform="translate(0,-952.36218)"><path style="text-indent:0;text-transform:none;direction:ltr;block-progression:tb;baseline-shift:baseline;color:#000000;enable-background:accumulate;" d="M 14.812493,961.36701 A 1.0000911,1.0000411 0 0 0 14,962.36695 l 0,67.99595 a 1.0000911,1.0000411 0 0 0 0.999991,1 l 37.999662,0 a 1.0000911,1.0000411 0 1 0 0,-1.9999 l -36.999671,0 0,-65.99611 51.999538,0 0,46.99721 a 1.0000911,1.0000411 0 1 0 1.999982,0 l 0,-47.99715 a 1.0000911,1.0000411 0 0 0 -0.999991,-0.99994 l -53.99952,0 a 1.0000911,1.0000411 0 0 0 -0.187498,0 z m 8.99992,16.999 a 1.004376,1.0043258 0 1 0 0.187498,1.99988 l 35.99968,0 a 1.0000911,1.0000411 0 1 0 0,-1.99988 l -35.99968,0 a 1.0000911,1.0000411 0 0 0 -0.187498,0 z m 0,16.999 a 1.004376,1.0043258 0 1 0 0.187498,1.99988 l 35.99968,0 a 1.0000911,1.0000411 0 1 0 0,-1.99988 l -35.99968,0 a 1.0000911,1.0000411 0 0 0 -0.187498,0 z m 0,16.99899 a 1.0043848,1.0043346 0 1 0 0.187498,1.9999 l 35.99968,0 a 1.0000911,1.0000411 0 1 0 0,-1.9999 l -35.99968,0 a 1.0000911,1.0000411 0 0 0 -0.187498,0 z m 48.187071,2.9998 c -3.587637,0 -7.176696,1.3642 -9.906162,4.0935 -5.458931,5.4587 -5.458931,14.3527 0,19.8114 5.458932,5.4585 14.353393,5.4585 19.812324,0 5.458932,-5.4587 5.458932,-14.3527 0,-19.8114 -2.729466,-2.7293 -6.318525,-4.0935 -9.906162,-4.0935 z m 0,1.9999 c 3.066304,0 6.121355,1.1838 8.468675,3.5311 4.69464,4.6944 4.69464,12.2421 0,16.9365 -4.694641,4.6944 -12.242708,4.6944 -16.937349,0 -4.694641,-4.6944 -4.694642,-12.2421 0,-16.9365 2.34732,-2.3473 5.402371,-3.5311 8.468674,-3.5311 z m -0.124999,3.9685 a 1.0000911,1.0000411 0 0 0 -0.874992,1.0312 l 0,5.9997 -4.999955,0 a 1.0000911,1.0000411 0 1 0 0,1.9998 l 5.999946,0 a 1.0000911,1.0000411 0 0 0 0.999991,-0.9999 l 0,-6.9996 a 1.0000911,1.0000411 0 0 0 -1.12499,-1.0312 z" fill="#000000" fill-opacity="1" stroke="none" marker="none" visibility="visible" display="inline" overflow="visible"/></g></svg>