<svg xmlns:dc="http://purl.org/dc/elements/1.1/" xmlns:cc="http://creativecommons.org/ns#" xmlns:rdf="http://www.w3.org/1999/02/22-rdf-syntax-ns#" xmlns:svg="http://www.w3.org/2000/svg" xmlns="http://www.w3.org/2000/svg" xmlns:sodipodi="http://sodipodi.sourceforge.net/DTD/sodipodi-0.dtd" xmlns:inkscape="http://www.inkscape.org/namespaces/inkscape" version="1.1" x="0px" y="0px" viewBox="0 0 100 125"><g transform="translate(0,-952.36218)"><path d="m 50,957.36217 c -3.906,0 -7.1634,2.5155 -8.4062,6 l -8.5938,0 c -0.5236,10e-5 -0.9999,0.4764 -1,1 l 0,3 -15,0 c -0.6741,0.01 -1.0002,0.5917 -1,1 l 0,78.00003 c 10e-5,0.5236 0.4764,0.9999 1,1 l 66,0 c 0.5236,-10e-5 0.9999,-0.4764 1,-1 l 0,-78.00003 c -1e-4,-0.5236 -0.4764,-0.9999 -1,-1 l -15,0 0,-3 c -1e-4,-0.5236 -0.4764,-0.9999 -1,-1 l -8.5938,0 c -1.2429,-3.4845 -4.5002,-6 -8.4062,-6 z m 0,2 c 3.286,0 6.0072,2.2278 6.7812,5.25 0.1099,0.4256 0.5293,0.7502 0.9688,0.75 l 8.25,0 0,8 -32,0 0,-8 8.25,0 c 0.4395,2e-4 0.8587,-0.3244 0.9688,-0.75 0.7738,-3.0222 3.4952,-5.25 6.7812,-5.25 z m -32,10 14,0 0,5 c 1e-4,0.5236 0.4764,0.9999 1,1 l 34,0 c 0.5236,-10e-5 0.9999,-0.4764 1,-1 l 0,-5 14,0 0,76.00003 -64,0 z m 24.875,10.9688 c -0.2561,0.0339 -0.497,0.17156 -0.6562,0.375 l -9.2813,11.15621 -5.2187,-5.21881 c -0.3681,-0.37647 -1.0457,-0.38399 -1.4221,-0.0158 -0.3764,0.36821 -0.3838,1.04574 -0.015,1.42209 l 6,6.00003 c 0.3912,0.409 1.1439,0.3779 1.5,-0.062 l 10,-12.00003 c 0.5508,-0.61126 -0.094,-1.79053 -0.9062,-1.65621 z m 6.125,9.0312 c -0.5523,0 -1,0.44771 -1,1 0,0.55221 0.4477,1.00001 1,1.00001 l 24,0 c 0.5523,0 1,-0.4478 1,-1.00001 0,-0.55229 -0.4477,-1 -1,-1 z m -6.125,12.96883 c -0.2561,0.034 -0.497,0.1716 -0.6562,0.375 l -9.2813,11.1562 -5.2187,-5.2188 c -0.3681,-0.3765 -1.0457,-0.384 -1.4221,-0.016 -0.3764,0.3682 -0.3838,1.0457 -0.015,1.4221 l 6,6 c 0.3912,0.409 1.1439,0.3779 1.5,-0.062 l 10,-12 c 0.5508,-0.6113 -0.094,-1.7906 -0.9062,-1.6562 z m 6.125,9.0312 c -0.5523,0 -1,0.4477 -1,1 0,0.5523 0.4477,1 1,1 l 24,0 c 0.5523,0 1,-0.4477 1,-1 0,-0.5523 -0.4477,-1 -1,-1 z m -6.125,12.9688 c -0.2561,0.034 -0.497,0.1715 -0.6562,0.375 l -9.2813,11.1562 -5.2187,-5.2188 c -0.3681,-0.3765 -1.0457,-0.384 -1.4221,-0.016 -0.3764,0.3682 -0.3838,1.0457 -0.015,1.4221 l 6,6 c 0.3912,0.409 1.1439,0.3779 1.5,-0.062 l 10,-12 c 0.5508,-0.6113 -0.094,-1.7906 -0.9062,-1.6562 z m 6.125,9.0312 c -0.5523,0 -1,0.4477 -1,1 0,0.5523 0.4477,1 1,1 l 24,0 c 0.5523,0 1,-0.4477 1,-1 0,-0.5523 -0.4477,-1 -1,-1 z" style="text-indent:0;text-transform:none;direction:ltr;block-progression:tb;baseline-shift:baseline;color:#000000;enable-background:accumulate;" fill="#000000" fill-opacity="1" stroke="none" marker="none" visibility="visible" display="inline" overflow="visible"/></g></svg>