<svg xmlns="http://www.w3.org/2000/svg" xmlns:xlink="http://www.w3.org/1999/xlink" version="1.1" x="0px" y="0px" viewBox="0 0 100 125" style="enable-background:new 0 0 100 100;" xml:space="preserve"><g><path d="M78.5227737,64.9390259H67.9006271c-0.4825668,0-0.8927231,0.3525162-0.964653,0.8298416l-1.4809189,9.82267   l-3.4900208-23.1734734c-0.390625-2.5905113-2.574791-4.4702759-5.193882-4.4702759h-0.5659332V26.8397484L66.5434418,16.501524   c0.18293-0.1829262,0.2858276-0.4306393,0.2858276-0.689786s-0.1028976-0.5068598-0.2858276-0.6897869l-2.9206314-2.9201603   c-0.3810997-0.3810968-0.9984779-0.3810968-1.3795738,0l-7.5071449,7.506669   c-0.4001541-0.1578579-0.8088226-0.2760563-1.2233849-0.3591251c0.913681-0.9942474,1.4768143-2.3155842,1.4768143-3.7691135   C54.989521,12.5028582,52.486187,10,49.4088211,10c-3.0773621,0-5.5806961,2.5028582-5.5806961,5.5802212   c0,1.4537086,0.5632515,2.7751637,1.4771118,3.7694111c-0.4143257,0.0831871-0.8230515,0.2015057-1.2236824,0.3597813   l-7.5071449-7.5076227c-0.3810959-0.3810968-0.9984741-0.3810968-1.3795738,0l-2.9206352,2.9201603   c-0.1829262,0.1829271-0.2858238,0.4306402-0.2858238,0.6897869s0.1028976,0.5068598,0.2858238,0.689786l10.329174,10.329649   v21.1166153h-6.9726563c-0.4825668,0-0.8927231,0.3525162-0.9646568,0.8298416l-1.3196678,8.76334H21.2485714   c-3.1002293,0-5.685976,2.2246552-6.1475801,5.2896309L11.1733046,88.878624   c-0.0423975,0.2810593,0.0400152,0.5668793,0.2253237,0.782196C11.5839367,89.8761444,11.8540392,90,12.1379576,90h17.4537926   h36.8997726h19.1944504c0.2839203,0,0.5540237-0.1238556,0.7393341-0.33918   c0.1853027-0.2153168,0.2677155-0.5011368,0.2253189-0.782196l-2.9339752-19.4702759   C83.3265076,66.8187866,81.1423416,64.9390259,78.5227737,64.9390259z M49.4088211,11.9512196   c2.0012398,0,3.6294785,1.6282396,3.6294785,3.6290016c0,2.0017147-1.6282387,3.6299534-3.6294785,3.6299534   c-2.001236,0-3.6294785-1.6282387-3.6294785-3.6299534C45.7793427,13.5794592,47.4075851,11.9512196,49.4088211,11.9512196z    M34.3435593,15.811738l1.5410652-1.5405874l7.293251,7.2932549c0.2982101,0.2982082,0.753624,0.3715706,1.1323395,0.180069   c0.7598114-0.3868141,1.5591621-0.5830803,2.3751907-0.5830803h5.4468346c0.8174553,0,1.616806,0.1962662,2.3747139,0.5821266   c0.376812,0.1915016,0.8346062,0.1200466,1.1328125-0.1791153l7.2932549-7.2932549l1.5410614,1.5405874l-9.9342575,9.9342604   c-0.1829262,0.1829262-0.2858238,0.4306412-0.2858238,0.6897869v21.5120029h-3.8695679v-9.0872688   c0-0.5392532-0.4368362-0.9756126-0.9756126-0.9756126s-0.9756088,0.4363594-0.9756088,0.9756126v9.0872688h-3.8786201V26.4272099   c0-0.2591457-0.1028976-0.5068588-0.2858238-0.6897869L34.3435593,15.811738z M28.7519054,88.0487823H13.2717228   l0.3979492-2.6390991h4.383873c0.5387764,0,0.9756088-0.4363632,0.9756088-0.9756165s-0.4368324-0.9756088-0.9756088-0.9756088   h-4.089654l0.458806-3.0430603h5.8350201c0.5387764,0,0.9756107-0.4363556,0.9756107-0.9756088   S20.7964935,78.46418,20.2577171,78.46418h-5.540801l2.3133802-15.3420372   c0.3167877-2.1036606,2.0907974-3.6299553,4.2182751-3.6299553h11.7997341L28.7519054,88.0487823z M30.7250385,88.0487823   l1.6272869-10.8060226h12.3142128c0.5387764,0,0.9756126-0.4363556,0.9756126-0.9756088s-0.4368362-0.9756088-0.9756126-0.9756088   H32.6461868l0.458271-3.0430679h7.9549942c0.5387764,0,0.9756088-0.4363556,0.9756088-0.9756088   s-0.4368324-0.9756088-0.9756088-0.9756088h-7.6611938l3.0718269-20.3982468h7.1088982h11.6506271h1.5415421   c1.6463394,0,3.0192451,1.1814003,3.264576,2.8096428l4.4540787,29.5766258v0.000351l0.1844711,1.2245789l0.6834793,4.5385742   H30.7250385z M67.3313675,88.0487823l-0.351387-2.3319016l-0.5388336-3.5778503l0.4932785-3.271843h6.349205   c0.5387802,0,0.9756088-0.4363556,0.9756088-0.9756088s-0.4368286-0.9756088-0.9756088-0.9756088h-6.0550461l0.4587479-3.0430679   h7.3579254c0.5387726,0,0.9756088-0.4363556,0.9756088-0.9756088s-0.4368362-0.9756088-0.9756088-0.9756088h-7.0637665   l0.7585068-5.0314407h9.7827759c1.6463394,0,3.0192413,1.1814041,3.2645721,2.809639l2.7648621,18.3488998H67.3313675z"/><path d="M23.2774391,83.4584579h-0.5878429c-0.5387764,0-0.9756107,0.4363556-0.9756107,0.9756088   s0.4368343,0.9756165,0.9756107,0.9756165h0.5878429c0.5387764,0,0.9756088-0.4363632,0.9756088-0.9756165   S23.8162155,83.4584579,23.2774391,83.4584579z"/><path d="M78.0649796,76.9159698h-0.7545776c-0.5387726,0-0.9756088,0.4363556-0.9756088,0.9756088   s0.4368362,0.9756088,0.9756088,0.9756088h0.7545776c0.5387726,0,0.9756088-0.4363556,0.9756088-0.9756088   S78.6037521,76.9159698,78.0649796,76.9159698z"/><path d="M49.7827759,75.2915421h-0.7545738c-0.5387764,0-0.9756088,0.4363556-0.9756088,0.9756088   s0.4368324,0.9756088,0.9756088,0.9756088h0.7545738c0.5387764,0,0.9756088-0.4363556,0.9756088-0.9756088   S50.3215523,75.2915421,49.7827759,75.2915421z"/><path d="M16.267149,27.2179871c0,0.5392532,0.4368343,0.9756107,0.9756107,0.9756107s0.9756088-0.4363575,0.9756088-0.9756107   c0-2.4657001,2.0060024-4.4712257,4.4712276-4.4712257c0.5387764,0,0.9756088-0.4363575,0.9756088-0.9756107   s-0.4368324-0.9756088-0.9756088-0.9756088c-2.4652252,0-4.4712276-2.0093384-4.4712276-4.4798031   c0-0.5392523-0.4368324-0.9756088-0.9756088-0.9756088s-0.9756107,0.4363565-0.9756107,0.9756088   c0,2.4704647-2.0102892,4.4798031-4.4807539,4.4798031c-0.5387774,0-0.9756098,0.4363556-0.9756098,0.9756088   s0.4368324,0.9756107,0.9756098,0.9756107C14.2568598,22.7467613,16.267149,24.7522869,16.267149,27.2179871z    M17.241806,19.7189407c0.5187702,0.8288879,1.2209415,1.5320129,2.0488758,2.0512581   c-0.8279343,0.5192451-1.5301056,1.2214165-2.0488758,2.0493507c-0.5192451-0.8279343-1.2223701-1.5301056-2.051734-2.0493507   C16.0194359,21.2509537,16.7225609,20.5478287,17.241806,19.7189407z"/><path d="M88.2136078,19.2149391c-2.4652252,0-4.4712296-2.0102901-4.4712296-4.4807549   c0-0.5392532-0.4368362-0.9756098-0.9756088-0.9756098c-0.5387802,0-0.9756088,0.4363565-0.9756088,0.9756098   c0,2.4704647-2.0102921,4.4807549-4.4807587,4.4807549c-0.5387726,0-0.9756088,0.4363575-0.9756088,0.9756088   c0,0.5392532,0.4368362,0.9756107,0.9756088,0.9756107c2.4704666,0,4.4807587,2.0055256,4.4807587,4.4712276   c0,0.5392532,0.4368286,0.9756088,0.9756088,0.9756088c0.5387726,0,0.9756088-0.4363556,0.9756088-0.9756088   c0-2.4657021,2.0060043-4.4712276,4.4712296-4.4712276c0.5387726,0,0.9756088-0.4363575,0.9756088-0.9756107   C89.1892166,19.6512966,88.7523804,19.2149391,88.2136078,19.2149391z M82.7658157,22.2389488   c-0.519249-0.8279343-1.222374-1.5310593-2.0517349-2.0493526c0.829361-0.5192451,1.532486-1.2223701,2.0517349-2.0512581   c0.5187683,0.8288879,1.2209396,1.5320129,2.0493546,2.0512581C83.9867554,20.7078896,83.284584,21.4110146,82.7658157,22.2389488z   "/><path d="M23.4556026,50.3706169c0,0.5392532,0.4368324,0.9756088,0.9756088,0.9756088s0.9756107-0.4363556,0.9756107-0.9756088   V34.7770576c0-0.5392532-0.4368343-0.9756088-0.9756107-0.9756088s-0.9756088,0.4363556-0.9756088,0.9756088V50.3706169z"/><path d="M75.0452576,56.4900932c0.5387726,0,0.9756088-0.4363594,0.9756088-0.9756126V33.3307915   c0-0.5392532-0.4368362-0.9756088-0.9756088-0.9756088c-0.5387802,0-0.9756088,0.4363556-0.9756088,0.9756088v22.1836891   C74.0696487,56.0537338,74.5064774,56.4900932,75.0452576,56.4900932z"/></g></svg>