<svg xmlns="http://www.w3.org/2000/svg" viewBox="0 0 64 80" x="0px" y="0px"><title>post it-sticky note-note-paper</title><g data-name="post it-sticky note-note-paper"><path d="M57,10.93,12.44,6.13a1,1,0,0,0-1.1.87L7.17,41.18h0a1,1,0,0,0,0,.38l0,.08a1.09,1.09,0,0,0,.19.33h0l0,0,.69.71-2,12a1,1,0,0,0,.18.75,1,1,0,0,0,.67.4L48.71,62h.15a1,1,0,0,0,.6-.2,1,1,0,0,0,.39-.68l.24-1.86,1.76.19H52a1,1,0,0,0,.63-.22,1,1,0,0,0,.37-.67L57.86,12A1,1,0,0,0,57,10.93ZM10.44,42.14a34.33,34.33,0,0,0,9.07-2A43,43,0,0,0,25.28,53,74.46,74.46,0,0,1,10.44,42.14ZM48,59.86,8.29,54.05,9.9,44.41A71.24,71.24,0,0,0,28.1,56.75l.2.1a1.22,1.22,0,0,0,.34.1l19.46,2.1Zm3.07-2.5L29.23,55a40.25,40.25,0,0,1-8-16.47,1,1,0,0,0-.54-.71,1,1,0,0,0-.89,0c-3.34,1.69-8.25,2.24-10.47,2.41l3.91-32,42.55,4.6Z"/><rect x="32.55" y="4.33" width="2" height="33.72" transform="translate(8.69 52.11) rotate(-83.48)"/><rect x="27.76" y="14.41" width="2" height="26.01" transform="translate(-1.66 52.97) rotate(-83.66)"/><rect x="30.15" y="18.2" width="2" height="32.77" transform="translate(-6.84 61.49) rotate(-83.29)"/></g></svg>