<svg xmlns="http://www.w3.org/2000/svg" viewBox="0 0 512 640" x="0px" y="0px"><title>Sad-Emoji-Emotion-Face-Expression-Feeling_1</title><path d="M507.49,182c-7.05-30.87-19.38-58.58-36.64-82.36A213.09,213.09,0,0,0,410.71,44C367.84,17.28,314.35,3.14,256,3.14h-2C196.45,3.47,143.67,17.58,101.29,44A213.84,213.84,0,0,0,43.73,96.2a198.46,198.46,0,0,0-20,32.09c-1.58,3.17-3.23,6.35-4.58,9.63A238.09,238.09,0,0,0,4.51,182c-7,30.84-2.56,56.57,13.32,76.49,16.5,20.69,45,34.9,87,43.32-6.52,15.56-14.68,38-19.2,61.87-7.47,39.43-2.85,70.4,13.73,92.06,40.85,53.36,150.51,53.13,156.6,53.07h1c12.83,0,116.17-1.63,155.55-53.08,16.58-21.66,21.2-52.63,13.74-92.06-4.52-23.85-12.68-46.31-19.2-61.87,42-8.42,70.54-22.63,87-43.32C510,238.61,514.53,212.88,507.49,182ZM396.71,443.62c-35,45.78-139.54,45.25-140.6,45.23h-.22c-1,0-105.57.55-140.61-45.23-28.81-37.64-3-108.65,9.86-138.31,41.21,5.94,89,6.78,130.86,6.78,11.09,0,22.6-.06,34.3-.26h.08c27.48-.46,56-1.71,82.44-4.73a8.77,8.77,0,0,0,1-.12c4.39-.51,8.74-1.06,13-1.67,6.35,14.61,15.18,37.67,19.81,62.14C413,401,409.69,426.67,396.71,443.62Zm81.81-197.56c-14.76,18.52-43,31-86.37,38.2-3.38.56-6.84,1.07-10.34,1.55A51.45,51.45,0,0,0,279.45,292c-8,.09-15.81.12-23.45.12-42.77,0-91.76-.9-132.71-7.3a51.45,51.45,0,0,0-92.71-42.74C21,227.53,18.8,209.3,24,186.49a224.38,224.38,0,0,1,8.58-28.79,76.84,76.84,0,0,0,118.5-64.6,76,76,0,0,0-14.78-45.29c30.24-14,64.88-22.24,102.12-24.2A76.85,76.85,0,1,0,388.05,54q6.18,3.33,12.07,7C445.93,89.57,475.5,131.8,488,186.49,493.69,211.44,490.59,230.93,478.52,246.06Z"/><circle cx="214.42" cy="188.93" r="65.03" transform="translate(-70.79 206.95) rotate(-45)"/><circle cx="413.8" cy="175.36" r="51.46" transform="translate(93.43 490.56) rotate(-67.5)"/><path d="M299,420c-.35-1.11-9.13-27.27-43-27.27S213.33,418.88,213,420h0a10,10,0,1,0,19,6.11h0l-.05.15c.5-1.38,5.39-13.53,24-13.53s23.53,12.15,24,13.53l0-.15h0A10,10,0,1,0,299,420Z"/><path d="M205.17,353.82a10,10,0,0,0-10,10,7.56,7.56,0,0,1-15.11,0,10,10,0,0,0-20,0,27.56,27.56,0,0,0,55.11,0A10,10,0,0,0,205.17,353.82Z"/><path d="M331.94,363.82a7.56,7.56,0,0,1-15.11,0,10,10,0,0,0-20,0,27.56,27.56,0,0,0,55.11,0,10,10,0,0,0-20,0Z"/></svg>